<svg width="520" height="520" viewBox="0 0 520 520" fill="none" xmlns="http://www.w3.org/2000/svg">
<path d="M520 0H0V520H520V0Z" fill="url(#paint0_linear_14_83)"/>
<path d="M510 10H10V510H510V10Z" fill="black"/>
<path d="M159.1 112.706C168.782 108.578 179.073 106.5 190.002 106.5H202.401V130.921H190.002C182.41 130.921 175.233 132.348 168.515 135.225L168.515 135.226C161.857 138.078 156 142.028 150.956 147.068L150.954 147.069C145.908 152.115 141.958 157.978 139.11 164.63C136.227 171.359 134.806 178.537 134.806 186.117V261.597H110.008V186.117C110.008 174.927 112.088 164.58 116.21 155.044L116.212 155.042C120.362 145.428 126.107 137.032 133.451 129.802C140.795 122.572 149.33 116.879 159.099 112.706L159.1 112.706Z" stroke="url(#paint1_linear_14_83)" stroke-width="9"/>
<path d="M164.79 295.284L164.79 295.285C176.178 306.495 182.444 321.479 182.444 337.528C182.444 370.592 155.536 397.5 122.472 397.5C89.4079 397.5 62.5 370.592 62.5 337.528C62.5 321.479 68.7667 306.495 80.1539 295.285C91.4373 284.179 106.45 278.058 122.472 278.058C138.494 278.058 153.512 284.179 164.79 295.284ZM122.472 309.221C106.446 309.221 93.6633 321.605 93.6633 337.528C93.6633 353.356 106.576 366.337 122.472 366.337C138.362 366.337 151.281 353.418 151.281 337.528C151.281 321.543 138.492 309.221 122.472 309.221Z" stroke="url(#paint2_linear_14_83)" stroke-width="9"/>
<path d="M211.32 275.281H219.194C219.835 275.281 220.445 275.188 221.023 275.002C221.602 274.796 222.108 274.506 222.542 274.134C222.976 273.762 223.317 273.318 223.565 272.801C223.834 272.264 223.968 271.654 223.968 270.972C223.968 269.608 223.576 268.534 222.79 267.748C222.005 266.963 220.806 266.57 219.194 266.57H211.32V275.281ZM209.212 264.772H219.349C220.259 264.772 221.116 264.886 221.922 265.113C222.749 265.341 223.462 265.692 224.061 266.167C224.681 266.622 225.167 267.221 225.518 267.965C225.89 268.689 226.076 269.546 226.076 270.538C226.076 271.944 225.715 273.163 224.991 274.196C224.268 275.23 223.193 275.891 221.767 276.18V276.242C222.491 276.346 223.09 276.542 223.565 276.831C224.041 277.1 224.423 277.451 224.712 277.885C225.022 278.319 225.239 278.826 225.363 279.404C225.508 279.962 225.601 280.572 225.642 281.233C225.663 281.605 225.684 282.06 225.704 282.597C225.725 283.135 225.766 283.682 225.828 284.24C225.89 284.778 225.983 285.294 226.107 285.79C226.252 286.266 226.438 286.638 226.665 286.906H224.34C224.216 286.7 224.113 286.452 224.03 286.162C223.968 285.852 223.917 285.542 223.875 285.232C223.855 284.902 223.834 284.581 223.813 284.271C223.793 283.961 223.772 283.693 223.751 283.465C223.71 282.68 223.638 281.905 223.534 281.14C223.452 280.355 223.255 279.663 222.945 279.063C222.656 278.443 222.222 277.947 221.643 277.575C221.085 277.203 220.31 277.038 219.318 277.079H211.32V286.906H209.212V264.772ZM229.672 264.772H231.78V278.474C231.78 279.756 231.925 280.851 232.214 281.76C232.504 282.649 232.927 283.383 233.485 283.961C234.043 284.519 234.725 284.933 235.531 285.201C236.337 285.449 237.247 285.573 238.259 285.573C239.293 285.573 240.212 285.449 241.018 285.201C241.824 284.933 242.506 284.519 243.064 283.961C243.622 283.383 244.046 282.649 244.335 281.76C244.625 280.851 244.769 279.756 244.769 278.474V264.772H246.877V278.939C246.877 280.076 246.712 281.161 246.381 282.194C246.071 283.207 245.565 284.096 244.862 284.86C244.18 285.625 243.292 286.235 242.196 286.689C241.122 287.123 239.809 287.34 238.259 287.34C236.73 287.34 235.418 287.123 234.322 286.689C233.248 286.235 232.359 285.625 231.656 284.86C230.974 284.096 230.468 283.207 230.137 282.194C229.827 281.161 229.672 280.076 229.672 278.939V264.772ZM248.755 264.772H266.27V266.57H258.551V286.906H256.443V266.57H248.755V264.772ZM268.336 264.772H270.444V274.382H283.588V264.772H285.696V286.906H283.588V276.18H270.444V286.906H268.336V264.772ZM287.746 264.772H289.978L297.17 284.581H297.232L304.362 264.772H306.594L298.379 286.906H295.93L287.746 264.772ZM308.695 264.772H310.803V286.906H308.695V264.772ZM315.412 264.772H317.52V276.676L330.385 264.772H333.237L323.348 273.917L333.702 286.906H330.974L321.767 275.374L317.52 279.311V286.906H315.412V264.772Z" fill="white"/>
<path d="M211.32 315.284H218.574C220.042 315.284 221.23 314.912 222.139 314.168C223.049 313.424 223.503 312.287 223.503 310.758C223.503 309.228 223.049 308.092 222.139 307.348C221.23 306.604 220.042 306.232 218.574 306.232H211.32V315.284ZM209.212 304.434H219.039C220.031 304.434 220.93 304.578 221.736 304.868C222.542 305.136 223.235 305.55 223.813 306.108C224.392 306.645 224.836 307.306 225.146 308.092C225.456 308.877 225.611 309.766 225.611 310.758C225.611 311.75 225.456 312.638 225.146 313.424C224.836 314.209 224.392 314.881 223.813 315.439C223.235 315.976 222.542 316.389 221.736 316.679C220.93 316.947 220.031 317.082 219.039 317.082H211.32V326.568H209.212V304.434ZM230.847 314.943H238.721C239.362 314.943 239.971 314.85 240.55 314.664C241.129 314.457 241.635 314.168 242.069 313.796C242.503 313.424 242.844 312.979 243.092 312.463C243.361 311.925 243.495 311.316 243.495 310.634C243.495 309.27 243.102 308.195 242.317 307.41C241.532 306.624 240.333 306.232 238.721 306.232H230.847V314.943ZM228.739 304.434H238.876C239.785 304.434 240.643 304.547 241.449 304.775C242.276 305.002 242.989 305.353 243.588 305.829C244.208 306.283 244.694 306.883 245.045 307.627C245.417 308.35 245.603 309.208 245.603 310.2C245.603 311.605 245.241 312.824 244.518 313.858C243.795 314.891 242.72 315.552 241.294 315.842V315.904C242.017 316.007 242.617 316.203 243.092 316.493C243.567 316.761 243.95 317.113 244.239 317.547C244.549 317.981 244.766 318.487 244.89 319.066C245.035 319.624 245.128 320.233 245.169 320.895C245.19 321.267 245.21 321.721 245.231 322.259C245.252 322.796 245.293 323.344 245.355 323.902C245.417 324.439 245.51 324.956 245.634 325.452C245.779 325.927 245.965 326.299 246.192 326.568H243.867C243.743 326.361 243.64 326.113 243.557 325.824C243.495 325.514 243.443 325.204 243.402 324.894C243.381 324.563 243.361 324.243 243.34 323.933C243.319 323.623 243.299 323.354 243.278 323.127C243.237 322.341 243.164 321.566 243.061 320.802C242.978 320.016 242.782 319.324 242.472 318.725C242.183 318.105 241.749 317.609 241.17 317.237C240.612 316.865 239.837 316.699 238.845 316.741H230.847V326.568H228.739V304.434ZM250.346 315.501C250.346 316.699 250.501 317.888 250.811 319.066C251.141 320.223 251.637 321.267 252.299 322.197C252.981 323.106 253.849 323.84 254.903 324.398C255.957 324.956 257.217 325.235 258.685 325.235C260.152 325.235 261.402 324.956 262.436 324.398C263.49 323.84 264.347 323.106 265.009 322.197C265.691 321.267 266.187 320.223 266.497 319.066C266.827 317.888 266.993 316.699 266.993 315.501C266.993 314.281 266.827 313.093 266.497 311.936C266.187 310.778 265.691 309.745 265.009 308.836C264.347 307.906 263.49 307.162 262.436 306.604C261.402 306.046 260.152 305.767 258.685 305.767C257.217 305.767 255.957 306.046 254.903 306.604C253.849 307.162 252.981 307.906 252.299 308.836C251.637 309.745 251.141 310.778 250.811 311.936C250.501 313.093 250.346 314.281 250.346 315.501ZM248.238 315.501C248.238 313.971 248.455 312.514 248.889 311.13C249.323 309.745 249.974 308.526 250.842 307.472C251.71 306.397 252.795 305.55 254.097 304.93C255.419 304.289 256.949 303.969 258.685 303.969C260.421 303.969 261.94 304.289 263.242 304.93C264.544 305.55 265.629 306.397 266.497 307.472C267.365 308.526 268.016 309.745 268.45 311.13C268.884 312.514 269.101 313.971 269.101 315.501C269.101 317.03 268.884 318.487 268.45 319.872C268.016 321.256 267.365 322.476 266.497 323.53C265.629 324.584 264.544 325.431 263.242 326.072C261.94 326.692 260.421 327.002 258.685 327.002C256.949 327.002 255.419 326.692 254.097 326.072C252.795 325.431 251.71 324.584 250.842 323.53C249.974 322.476 249.323 321.256 248.889 319.872C248.455 318.487 248.238 317.03 248.238 315.501ZM274.501 315.284H281.755C283.222 315.284 284.411 314.912 285.32 314.168C286.229 313.424 286.684 312.287 286.684 310.758C286.684 309.228 286.229 308.092 285.32 307.348C284.411 306.604 283.222 306.232 281.755 306.232H274.501V315.284ZM272.393 304.434H282.22C283.212 304.434 284.111 304.578 284.917 304.868C285.723 305.136 286.415 305.55 286.994 306.108C287.573 306.645 288.017 307.306 288.327 308.092C288.637 308.877 288.792 309.766 288.792 310.758C288.792 311.75 288.637 312.638 288.327 313.424C288.017 314.209 287.573 314.881 286.994 315.439C286.415 315.976 285.723 316.389 284.917 316.679C284.111 316.947 283.212 317.082 282.22 317.082H274.501V326.568H272.393V304.434ZM291.92 304.434H307.202V306.232H294.028V314.23H306.366V316.028H294.028V324.77H307.358V326.568H291.92V304.434ZM312.403 314.943H320.277C320.918 314.943 321.528 314.85 322.106 314.664C322.685 314.457 323.191 314.168 323.625 313.796C324.059 313.424 324.4 312.979 324.648 312.463C324.917 311.925 325.051 311.316 325.051 310.634C325.051 309.27 324.659 308.195 323.873 307.41C323.088 306.624 321.889 306.232 320.277 306.232H312.403V314.943ZM310.295 304.434H320.432C321.342 304.434 322.199 304.547 323.005 304.775C323.832 305.002 324.545 305.353 325.144 305.829C325.764 306.283 326.25 306.883 326.601 307.627C326.973 308.35 327.159 309.208 327.159 310.2C327.159 311.605 326.798 312.824 326.074 313.858C325.351 314.891 324.276 315.552 322.85 315.842V315.904C323.574 316.007 324.173 316.203 324.648 316.493C325.124 316.761 325.506 317.113 325.795 317.547C326.105 317.981 326.322 318.487 326.446 319.066C326.591 319.624 326.684 320.233 326.725 320.895C326.746 321.267 326.767 321.721 326.787 322.259C326.808 322.796 326.849 323.344 326.911 323.902C326.973 324.439 327.066 324.956 327.19 325.452C327.335 325.927 327.521 326.299 327.748 326.568H325.423C325.299 326.361 325.196 326.113 325.113 325.824C325.051 325.514 325 325.204 324.958 324.894C324.938 324.563 324.917 324.243 324.896 323.933C324.876 323.623 324.855 323.354 324.834 323.127C324.793 322.341 324.721 321.566 324.617 320.802C324.535 320.016 324.338 319.324 324.028 318.725C323.739 318.105 323.305 317.609 322.726 317.237C322.168 316.865 321.393 316.699 320.401 316.741H312.403V326.568H310.295V304.434ZM328.798 304.434H346.313V306.232H338.594V326.568H336.486V306.232H328.798V304.434ZM354.548 317.454L345.868 304.434H348.348L355.633 315.656L362.887 304.434H365.398L356.656 317.454V326.568H354.548V317.454Z" fill="white"/>
<path d="M212.25 344.095L219.597 363.501L227.223 344.095H230.323V366.229H228.215V347.102H228.153L220.589 366.229H218.605L211.32 347.102H211.258V366.229H209.15V344.095H212.25ZM237.803 357.549H246.514L242.236 346.203L237.803 357.549ZM241.151 344.095H243.507L252.187 366.229H249.924L247.227 359.347H237.152L234.486 366.229H232.254L241.151 344.095ZM254.168 344.095H256.524L269.42 362.819H269.482V344.095H271.59V366.229H269.234L256.338 347.505H256.276V366.229H254.168V344.095ZM279.157 357.549H287.868L283.59 346.203L279.157 357.549ZM282.505 344.095H284.861L293.541 366.229H291.278L288.581 359.347H278.506L275.84 366.229H273.608L282.505 344.095ZM314.462 366.229H312.943L312.664 362.199H312.602C312.23 362.984 311.765 363.666 311.207 364.245C310.67 364.803 310.071 365.268 309.409 365.64C308.748 365.991 308.035 366.25 307.27 366.415C306.526 366.58 305.751 366.663 304.945 366.663C303.209 366.663 301.68 366.353 300.357 365.733C299.055 365.092 297.97 364.245 297.102 363.191C296.234 362.137 295.583 360.918 295.149 359.533C294.715 358.148 294.498 356.691 294.498 355.162C294.498 353.633 294.715 352.176 295.149 350.791C295.583 349.406 296.234 348.187 297.102 347.133C297.97 346.058 299.055 345.211 300.357 344.591C301.68 343.95 303.209 343.63 304.945 343.63C306.103 343.63 307.198 343.785 308.231 344.095C309.265 344.405 310.184 344.87 310.99 345.49C311.796 346.11 312.478 346.875 313.036 347.784C313.594 348.693 313.977 349.758 314.183 350.977H312.075C312.013 350.336 311.796 349.696 311.424 349.055C311.073 348.394 310.587 347.794 309.967 347.257C309.368 346.72 308.645 346.286 307.797 345.955C306.95 345.604 305.999 345.428 304.945 345.428C303.478 345.428 302.217 345.707 301.163 346.265C300.109 346.823 299.241 347.567 298.559 348.497C297.898 349.406 297.402 350.44 297.071 351.597C296.761 352.754 296.606 353.943 296.606 355.162C296.606 356.361 296.761 357.549 297.071 358.727C297.402 359.884 297.898 360.928 298.559 361.858C299.241 362.767 300.109 363.501 301.163 364.059C302.217 364.617 303.478 364.896 304.945 364.896C306.165 364.896 307.25 364.7 308.2 364.307C309.172 363.894 309.988 363.325 310.649 362.602C311.311 361.879 311.807 361.021 312.137 360.029C312.468 359.037 312.623 357.952 312.602 356.774H305.069V354.976H314.462V366.229ZM318.53 344.095H333.813V345.893H320.638V353.891H332.976V355.689H320.638V364.431H333.968V366.229H318.53V344.095ZM339.944 344.095L347.291 363.501L354.917 344.095H358.017V366.229H355.909V347.102H355.847L348.283 366.229H346.299L339.014 347.102H338.952V366.229H336.844V344.095H339.944ZM362.366 344.095H377.649V345.893H364.474V353.891H376.812V355.689H364.474V364.431H377.804V366.229H362.366V344.095ZM380.711 344.095H383.067L395.963 362.819H396.025V344.095H398.133V366.229H395.777L382.881 347.505H382.819V366.229H380.711V344.095ZM400.213 344.095H417.728V345.893H410.009V366.229H407.901V345.893H400.213V344.095Z" fill="white"/>
<path opacity="0.5" d="M208.132 377.805H209.22V388.301H215.62V389.229H208.132V377.805ZM216.726 377.805H217.814V388.301H224.214V389.229H216.726V377.805ZM233.672 381.261C233.576 380.824 233.416 380.434 233.192 380.093C232.979 379.741 232.712 379.448 232.392 379.213C232.083 378.978 231.736 378.802 231.352 378.685C230.979 378.557 230.584 378.493 230.168 378.493C229.411 378.493 228.76 378.637 228.216 378.925C227.672 379.213 227.224 379.597 226.872 380.077C226.531 380.546 226.275 381.08 226.104 381.677C225.944 382.274 225.864 382.888 225.864 383.517C225.864 384.136 225.944 384.749 226.104 385.357C226.275 385.954 226.531 386.493 226.872 386.973C227.224 387.442 227.672 387.821 228.216 388.109C228.76 388.397 229.411 388.541 230.168 388.541C230.701 388.541 231.181 388.445 231.608 388.253C232.035 388.061 232.403 387.8 232.712 387.469C233.021 387.138 233.272 386.754 233.464 386.317C233.656 385.869 233.779 385.389 233.832 384.877H234.92C234.845 385.581 234.68 386.216 234.424 386.781C234.168 387.346 233.837 387.826 233.432 388.221C233.027 388.616 232.547 388.92 231.992 389.133C231.448 389.346 230.84 389.453 230.168 389.453C229.272 389.453 228.483 389.293 227.8 388.973C227.128 388.642 226.568 388.205 226.12 387.661C225.672 387.117 225.336 386.488 225.112 385.773C224.888 385.058 224.776 384.306 224.776 383.517C224.776 382.728 224.888 381.976 225.112 381.261C225.336 380.546 225.672 379.917 226.12 379.373C226.568 378.818 227.128 378.381 227.8 378.061C228.483 377.73 229.272 377.565 230.168 377.565C230.712 377.565 231.24 377.645 231.752 377.805C232.275 377.965 232.744 378.205 233.16 378.525C233.587 378.834 233.939 379.218 234.216 379.677C234.504 380.136 234.685 380.664 234.76 381.261H233.672ZM236.986 389.229V387.533H238.33V389.229H236.986Z" fill="white"/>
<defs>
<linearGradient id="paint0_linear_14_83" x1="0" y1="260" x2="520" y2="260" gradientUnits="userSpaceOnUse">
<stop stop-color="#AE8625"/>
<stop offset="0.41" stop-color="#F7EF8A"/>
<stop offset="0.86" stop-color="#D2AC47"/>
<stop offset="1" stop-color="#EDC967"/>
</linearGradient>
<linearGradient id="paint1_linear_14_83" x1="156.204" y1="102" x2="156.204" y2="266.097" gradientUnits="userSpaceOnUse">
<stop stop-color="#AE8625"/>
<stop offset="0.41" stop-color="#F7EF8A"/>
<stop offset="0.86" stop-color="#D2AC47"/>
<stop offset="1" stop-color="#EDC967"/>
</linearGradient>
<linearGradient id="paint2_linear_14_83" x1="122.472" y1="273.558" x2="122.472" y2="402" gradientUnits="userSpaceOnUse">
<stop stop-color="#AE8625"/>
<stop offset="0.41" stop-color="#F7EF8A"/>
<stop offset="0.86" stop-color="#D2AC47"/>
<stop offset="1" stop-color="#EDC967"/>
</linearGradient>
</defs>
</svg>
